<svg xmlns="http://www.w3.org/2000/svg" width="112.5" viewBox="0 0 112.5 112.5" height="112.5" version="1.0"><defs><clipPath id="a"><path d="M 39 25 L 96.710938 25 L 96.710938 97 L 39 97 Z M 39 25"/></clipPath><clipPath id="b"><path d="M 15.757812 15 L 73 15 L 73 88 L 15.757812 88 Z M 15.757812 15"/></clipPath></defs><g clip-path="url(#a)"><path fill="#FFF" d="M 96.714844 78.414062 L 96.714844 30.304688 C 96.714844 26.601562 92.597656 24.390625 89.527344 26.445312 L 72.648438 37.734375 L 84.058594 45.367188 L 84.058594 77.792969 C 84.058594 82.734375 78.570312 85.679688 74.472656 82.941406 L 51.183594 67.359375 L 39.773438 74.992188 L 67.964844 93.851562 C 80.253906 102.070312 96.714844 93.230469 96.714844 78.414062 Z M 96.714844 78.414062"/></g><g clip-path="url(#b)"><path fill="#FFF" d="M 28.367188 67.359375 L 28.367188 34.933594 C 28.367188 29.996094 33.855469 27.050781 37.949219 29.789062 L 61.242188 45.367188 L 72.648438 37.734375 L 44.457031 18.878906 C 32.167969 10.65625 15.710938 19.496094 15.710938 34.316406 L 15.710938 82.421875 C 15.710938 86.128906 19.824219 88.335938 22.898438 86.28125 L 39.773438 74.992188 Z M 28.367188 67.359375"/></g><path fill="#FFF" d="M 51.183594 67.359375 L 84.054688 45.371094 L 84.058594 45.371094 L 72.648438 37.734375 L 61.238281 45.367188 L 61.238281 45.371094 L 28.367188 67.359375 L 39.773438 74.992188 Z M 51.183594 67.359375"/></svg>